# xmcd CD database file
#
# Track frame offsets:
#	150
#	11827
#	24015
#	38185
#	54282
#	65810
#	76707
#	95030
#	105645
#	120055
#
# Disc length: 1791 seconds
#
# Revision: 0
# Processed by: cddbd v1.5.2PL0 Copyright (c) Steve Scherf et al.
# Submitted via: CDex 1.51
#
DISCID=6d06fd0a
DTITLE=Axel Black Orchester - Big Band Sound In Stereo
DYEAR=1900
DGENRE=Jazz
TTITLE0=The shoop shoop song
TTITLE1=I only wanna be with You
TTITLE2=One moment in time
TTITLE3=Looking for freedom
TTITLE4=Seald with a kiss
TTITLE5=Pretty wooman
TTITLE6=Leningrad
TTITLE7=Twist auf allen Linien
TTITLE8=Wir beide gingen Hand in Hand
TTITLE9=Macho macho
EXTD=
EXTT0=
EXTT1=
EXTT2=
EXTT3=
EXTT4=
EXTT5=
EXTT6=
EXTT7=
EXTT8=
EXTT9=
PLAYORDER=
